<svg width="16" height="13" viewBox="0 0 16 13" fill="none" xmlns="http://www.w3.org/2000/svg">
<path d="M14.4167 0.298584H2.30564C1.473 0.298584 0.791748 0.979834 0.791748 1.81247V10.8958C0.791748 11.7284 1.473 12.4097 2.30564 12.4097H14.4167C15.2494 12.4097 15.9306 11.7284 15.9306 10.8958V1.81247C15.9306 0.979834 15.2494 0.298584 14.4167 0.298584ZM14.114 3.5156L9.16355 6.6115C8.67154 6.92185 8.05085 6.92185 7.55883 6.6115L2.60841 3.5156C2.53251 3.47299 2.46605 3.41542 2.41304 3.34639C2.36003 3.27735 2.32158 3.19827 2.30002 3.11394C2.27845 3.02961 2.27423 2.94178 2.28759 2.85577C2.30095 2.76976 2.33163 2.68736 2.37776 2.61355C2.42389 2.53974 2.48452 2.47605 2.55598 2.42635C2.62744 2.37665 2.70823 2.34196 2.79348 2.32439C2.87873 2.30682 2.96666 2.30673 3.05195 2.32413C3.13724 2.34152 3.21811 2.37604 3.28966 2.4256L8.36119 5.59719L13.4327 2.4256C13.5043 2.37604 13.5851 2.34152 13.6704 2.32413C13.7557 2.30673 13.8437 2.30682 13.9289 2.32439C14.0142 2.34196 14.0949 2.37665 14.1664 2.42635C14.2379 2.47605 14.2985 2.53974 14.3446 2.61355C14.3908 2.68736 14.4214 2.76976 14.4348 2.85577C14.4482 2.94178 14.4439 3.02961 14.4224 3.11394C14.4008 3.19827 14.3624 3.27735 14.3093 3.34639C14.2563 3.41542 14.1899 3.47299 14.114 3.5156Z" fill="#BCBCBC"/>
</svg>
