<svg width="34" height="33" viewBox="0 0 34 33" fill="none" xmlns="http://www.w3.org/2000/svg">
<g clip-path="url(#clip0)">
<path d="M12.6732 6.52556C12.6732 7.33718 12.6732 10.9598 12.6732 10.9598H9.42456V16.3819H12.6732V32.4946H19.3466V16.3824H23.8247C23.8247 16.3824 24.2441 13.7825 24.4474 10.9398C23.8646 10.9398 19.3718 10.9398 19.3718 10.9398C19.3718 10.9398 19.3718 7.78533 19.3718 7.23242C19.3718 6.67832 20.0994 5.93297 20.8185 5.93297C21.5363 5.93297 23.0513 5.93297 24.4544 5.93297C24.4544 5.19474 24.4544 2.64398 24.4544 0.288208C22.5813 0.288208 20.4502 0.288208 19.5109 0.288208C12.5082 0.287834 12.6732 5.71537 12.6732 6.52556Z" fill="#737373"/>
</g>
<defs>
<clipPath id="clip0">
<rect x="0.836426" y="0.288086" width="32.2065" height="32.2066" fill="white"/>
</clipPath>
</defs>
</svg>
