<svg width="26" height="26" viewBox="0 0 26 26" fill="none" xmlns="http://www.w3.org/2000/svg">
<g clip-path="url(#clip0)">
<path d="M22.0623 0.15332H3.84549C1.76457 0.15332 0.0712891 1.8466 0.0712891 3.92752V22.1443C0.0712891 24.2252 1.76457 25.9185 3.84549 25.9185H22.0623C24.1432 25.9185 25.8365 24.2252 25.8365 22.1443V3.92752C25.8365 1.8466 24.1432 0.15332 22.0623 0.15332ZM13.0042 19.7791C9.25812 19.7791 6.21065 16.7317 6.21065 12.9856C6.21065 9.2395 9.25812 6.19204 13.0042 6.19204C16.7503 6.19204 19.7978 9.2395 19.7978 12.9856C19.7978 16.7317 16.7503 19.7791 13.0042 19.7791ZM20.5526 7.70172C19.304 7.70172 18.2881 6.68583 18.2881 5.4372C18.2881 4.18857 19.304 3.17268 20.5526 3.17268C21.8012 3.17268 22.8171 4.18857 22.8171 5.4372C22.8171 6.68583 21.8012 7.70172 20.5526 7.70172Z" fill="#BCBCBC"/>
<path d="M20.5527 4.68237C20.1362 4.68237 19.7979 5.02067 19.7979 5.43721C19.7979 5.85375 20.1362 6.19205 20.5527 6.19205C20.9692 6.19205 21.3075 5.85375 21.3075 5.43721C21.3075 5.02067 20.9692 4.68237 20.5527 4.68237Z" fill="#BCBCBC"/>
<path d="M13.0041 7.70166C10.0909 7.70166 7.72021 10.0723 7.72021 12.9855C7.72021 15.8987 10.0909 18.2694 13.0041 18.2694C15.9173 18.2694 18.288 15.8987 18.288 12.9855C18.288 10.0723 15.9173 7.70166 13.0041 7.70166Z" fill="#BCBCBC"/>
</g>
<defs>
<clipPath id="clip0">
<rect x="0.0712891" y="0.15332" width="25.7652" height="25.7652" fill="white"/>
</clipPath>
</defs>
</svg>
