<svg width="14" height="15" viewBox="0 0 14 15" fill="none" xmlns="http://www.w3.org/2000/svg">
<path d="M3.01089 6.43822C4.10089 8.58038 5.857 10.3289 7.99915 11.4265L9.66443 9.76121C9.86881 9.55683 10.1716 9.48871 10.4365 9.57954C11.2843 9.85961 12.2002 10.011 13.1388 10.011C13.5551 10.011 13.8958 10.3516 13.8958 10.7679V13.4097C13.8958 13.826 13.5551 14.1666 13.1388 14.1666C6.0311 14.1666 0.270752 8.40628 0.270752 1.29857C0.270752 0.882251 0.611377 0.541626 1.0277 0.541626H3.677C4.09332 0.541626 4.43395 0.882251 4.43395 1.29857C4.43395 2.24475 4.58533 3.15308 4.8654 4.00086C4.94867 4.26579 4.88811 4.561 4.67617 4.77295L3.01089 6.43822Z" fill="#BCBCBC"/>
</svg>
