<svg width="17" height="17" viewBox="0 0 17 17" fill="none" xmlns="http://www.w3.org/2000/svg">
<path d="M13.4583 13.25C13.8782 13.25 14.281 13.4168 14.5779 13.7138C14.8748 14.0107 15.0417 14.4134 15.0417 14.8333C15.0417 15.2533 14.8748 15.656 14.5779 15.9529C14.281 16.2499 13.8782 16.4167 13.4583 16.4167C13.0384 16.4167 12.6357 16.2499 12.3387 15.9529C12.0418 15.656 11.875 15.2533 11.875 14.8333C11.875 13.9546 12.5796 13.25 13.4583 13.25ZM0.791656 0.583344H3.38041L4.12457 2.16668H15.8333C16.0433 2.16668 16.2447 2.25008 16.3931 2.39855C16.5416 2.54702 16.625 2.74838 16.625 2.95834C16.625 3.09293 16.5854 3.22751 16.53 3.35418L13.6958 8.47626C13.4267 8.95918 12.9042 9.29168 12.3104 9.29168H6.41249L5.69999 10.5821L5.67624 10.6771C5.67624 10.7296 5.69709 10.7799 5.73421 10.817C5.77133 10.8542 5.82167 10.875 5.87416 10.875H15.0417V12.4583H5.54166C5.12173 12.4583 4.719 12.2915 4.42207 11.9946C4.12514 11.6977 3.95832 11.2949 3.95832 10.875C3.95832 10.5979 4.02957 10.3367 4.14832 10.115L5.22499 8.17543L2.37499 2.16668H0.791656V0.583344ZM5.54166 13.25C5.96158 13.25 6.36431 13.4168 6.66124 13.7138C6.95817 14.0107 7.12499 14.4134 7.12499 14.8333C7.12499 15.2533 6.95817 15.656 6.66124 15.9529C6.36431 16.2499 5.96158 16.4167 5.54166 16.4167C5.12173 16.4167 4.719 16.2499 4.42207 15.9529C4.12514 15.656 3.95832 15.2533 3.95832 14.8333C3.95832 13.9546 4.66291 13.25 5.54166 13.25ZM12.6667 7.70834L14.8675 3.75001H4.86082L6.72916 7.70834H12.6667Z" fill="#1D1D1B"/>
</svg>
