<svg width="37" height="20" viewBox="0 0 37 20" fill="none" xmlns="http://www.w3.org/2000/svg">
<path d="M32.2487 7.25142C35.9813 2.19816 35.1535 2.10349 36.0713 0.524658H28.9185C28.9185 0.524658 28.4102 2.28953 28.255 2.60546C26.8812 5.39958 23.7997 9.59201 21.9361 10.0205C20.101 10.4427 20.3446 6.10603 20.4577 4.2275C20.5642 2.4863 20.546 1.877 20.4948 1.5762C20.42 1.13671 20.0512 0.816097 19.6087 0.760231C18.6964 0.644646 17.0411 0.481176 15.1873 0.567039L13.5289 0.62208C14.1828 2.08478 14.6245 1.63647 14.8653 3.32869C15.1372 5.30987 15.0302 10.1306 13.079 10.1306C9.95103 10.1306 6.44 0.736288 6.32827 0.524658H0L0.579025 1.9736C5.24562 13.6559 11.0821 19.0667 19.0676 19.5166L20.1068 19.5466L20.1811 18.5374C20.2934 16.979 21.0752 14.7355 22.462 14.7355C24.5109 14.7355 25.1028 15.3322 26.4541 17.0018C27.7533 18.6027 28.6485 19.5466 30.745 19.5466H36.0713L35.3117 18.0192C34.1256 15.6379 31.7465 13.5965 30.8174 12.4123C30.4808 11.9665 30.1495 11.2617 30.4924 10.4091C30.7728 9.66659 31.6078 8.11803 32.2487 7.25142Z" fill="#BCBCBC"/>
</svg>
