<svg width="37" height="36" viewBox="0 0 37 36" fill="none" xmlns="http://www.w3.org/2000/svg">
<path d="M32.4325 10.8045C32.2616 10.1706 31.9277 9.59252 31.464 9.12776C31.0003 8.66301 30.423 8.3278 29.7895 8.15551C27.4405 7.51051 18.043 7.50001 18.043 7.50001C18.043 7.50001 8.64698 7.48951 6.29648 8.10601C5.66336 8.28623 5.08721 8.62618 4.62332 9.09321C4.15944 9.56025 3.8234 10.1387 3.64748 10.773C3.02798 13.122 3.02197 17.994 3.02197 17.994C3.02197 17.994 3.01597 22.89 3.63097 25.215C3.97597 26.5005 4.98848 27.516 6.27548 27.8625C8.64848 28.5075 18.0205 28.518 18.0205 28.518C18.0205 28.518 27.418 28.5285 29.767 27.9135C30.4007 27.7415 30.9786 27.4071 31.4435 26.9433C31.9083 26.4795 32.2441 25.9024 32.4175 25.269C33.0385 22.9215 33.043 18.051 33.043 18.051C33.043 18.051 33.073 13.1535 32.4325 10.8045ZM15.037 22.5075L15.0445 13.5075L22.855 18.015L15.037 22.5075Z" fill="#BCBCBC"/>
</svg>
